<svg xmlns="http://www.w3.org/2000/svg" viewBox="0 0 400 400"><defs><radialGradient id="r" cx="50%" cy="50%" r="50%"><stop offset="70%" stop-color="#D4B08C"/><stop offset="100%" stop-color="#B8926A"/></radialGradient><radialGradient id="b" cx="45%" cy="42%" r="50%"><stop offset="0%" stop-color="#D4A030"/><stop offset="100%" stop-color="#C08820"/></radialGradient><radialGradient id="y" cx="40%" cy="35%" r="55%"><stop offset="0%" stop-color="#F8B830"/><stop offset="100%" stop-color="#E08820"/></radialGradient><linearGradient id="c" x1="0" y1="0" x2="0" y2="1"><stop offset="0%" stop-color="#D2691E"/><stop offset="50%" stop-color="#A0522D"/><stop offset="100%" stop-color="#6B3A1F"/></linearGradient><radialGradient id="h" cx="38%" cy="35%" r="40%"><stop offset="0%" stop-color="#FFF" stop-opacity="0.12"/><stop offset="100%" stop-color="#FFF" stop-opacity="0"/></radialGradient></defs><ellipse cx="204" cy="208" rx="155" ry="155" fill="rgba(0,0,0,0.1)"/><circle cx="200" cy="200" r="160" fill="url(#r)"/><circle cx="200" cy="200" r="148" fill="url(#r)" stroke="#A07A52" stroke-width="0.5"/><circle cx="200" cy="200" r="142" fill="url(#b)"/><path d="M130,200Q160,170 200,180Q240,190 260,210Q280,230 300,215" stroke="#F0D080" stroke-width="3" fill="none" opacity=".55"/><path d="M120,220Q155,195 190,215Q225,235 270,200" stroke="#E8C870" stroke-width="2.5" fill="none" opacity=".5"/><path d="M140,240Q180,210 220,230Q260,250 290,225" stroke="#F0D080" stroke-width="2.8" fill="none" opacity=".45"/><path d="M150,180Q185,165 215,185Q250,200 280,185" stroke="#E8C870" stroke-width="2.5" fill="none" opacity=".6"/><path d="M110,195Q150,230 200,205Q250,180 285,200" stroke="#F0D080" stroke-width="3" fill="none" opacity=".4"/><rect x="185" y="75" width="30" height="16" rx="2" fill="#1A3020" opacity=".85"/><rect x="186" y="76" width="28" height="14" rx="1.5" fill="#2A4030"/><line x1="190" y1="79" x2="190" y2="87" stroke="#1A3020" stroke-width=".3" opacity=".4"/><line x1="196" y1="79" x2="196" y2="87" stroke="#1A3020" stroke-width=".3" opacity=".4"/><line x1="202" y1="79" x2="202" y2="87" stroke="#1A3020" stroke-width=".3" opacity=".4"/><g transform="translate(120,155)"><circle cx="0" cy="0" r="18" fill="#C4845C"/><circle cx="0" cy="0" r="16" fill="#D4946C"/><path d="M-10,-5Q-3,-9 5,-3Q10,5 3,9" stroke="#E8C0A0" stroke-width="1.5" fill="none" opacity=".6"/><path d="M-7,7Q0,3 7,7" stroke="#E8C0A0" stroke-width="1" fill="none" opacity=".5"/><path d="M-12,0Q-6,-2 0,0Q6,2 12,0" stroke="#8B5A3C" stroke-width=".8" fill="none" opacity=".3"/></g><g transform="translate(140,170)"><circle cx="0" cy="0" r="17" fill="#C4845C"/><circle cx="0" cy="0" r="15" fill="#D4946C"/><path d="M-8,-4Q-2,-8 4,-2Q8,4 2,8" stroke="#E8C0A0" stroke-width="1.5" fill="none" opacity=".6"/><path d="M-6,6Q0,2 6,6" stroke="#E8C0A0" stroke-width="1" fill="none" opacity=".5"/></g><g transform="translate(275,130)"><ellipse cx="0" cy="0" rx="20" ry="15" fill="#F5F0E0" stroke="#E8DCC8" stroke-width=".5"/><circle cx="0" cy="0" r="8" fill="#F0A030"/><circle cx="0" cy="0" r="7" fill="url(#y)"/><circle cx="-2" cy="-2" r="3" fill="#F8C040" opacity=".6"/></g><g transform="translate(290,240)"><circle cx="0" cy="0" r="2.5" fill="#FFD54F"/><circle cx="4" cy="1" r="2.5" fill="#FFCA28"/><circle cx="2" cy="4" r="2.5" fill="#FFD54F"/><circle cx="-2" cy="3" r="2.5" fill="#FFC107"/><circle cx="6" cy="4" r="2.5" fill="#FFD54F"/><circle cx="1" cy="-3" r="2.5" fill="#FFCA28"/></g><g transform="translate(270,280)"><circle cx="0" cy="0" r="13" fill="#FFF5F0" stroke="#F0E0D8" stroke-width=".5"/><path d="M0,-6Q6,-6 6,0Q6,4 2,4Q-2,4-2,1Q-2,-2 0,-2" stroke="#E88090" stroke-width="2" fill="none"/></g><g transform="translate(120,280)"><path d="M-9,4Q-9,-5 0,-7Q9,-5 9,4Z" fill="#8D6E63" stroke="#6D4C41" stroke-width=".5"/><path d="M-7,4L-7,9 7,9 7,4" fill="#D7CCC8"/></g><circle cx="220" cy="160" r="3.5" fill="#4CAF50" stroke="#388E3C" stroke-width=".5"/><circle cx="220" cy="160" r="1.5" fill="#66BB6A"/><circle cx="180" cy="250" r="3.5" fill="#4CAF50" stroke="#388E3C" stroke-width=".5"/><circle cx="180" cy="250" r="1.5" fill="#66BB6A"/><circle cx="240" cy="220" r="3" fill="#4CAF50" stroke="#388E3C" stroke-width=".5"/><circle cx="240" cy="220" r="1.2" fill="#66BB6A"/><circle cx="165" cy="200" r="3.5" fill="#4CAF50" stroke="#388E3C" stroke-width=".5"/><circle cx="165" cy="200" r="1.5" fill="#66BB6A"/><circle cx="200" cy="290" r="3" fill="#4CAF50" stroke="#388E3C" stroke-width=".5"/><circle cx="200" cy="290" r="1.2" fill="#66BB6A"/><circle cx="200" cy="200" r="142" fill="url(#h)"/><g transform="translate(295,80)rotate(30)"><rect x="0" y="0" width="4.5" height="95" rx="1.5" fill="url(#c)" opacity=".9"/><rect x="9" y="0" width="4.5" height="95" rx="1.5" fill="url(#c)" opacity=".85"/></g></svg>