<svg xmlns="http://www.w3.org/2000/svg" viewBox="0 0 400 400">
<defs>
<radialGradient id="a" cx="50%" cy="50%" r="50%"><stop offset="0%" stop-color="#F5E6C8"/><stop offset="100%" stop-color="#E8D4A0"/></radialGradient>
<radialGradient id="b" cx="50%" cy="50%" r="50%"><stop offset="0%" stop-color="#8B7355"/><stop offset="80%" stop-color="#6B5340"/><stop offset="100%" stop-color="#4A3728"/></radialGradient>
<radialGradient id="c" cx="42%" cy="42%" r="52%"><stop offset="0%" stop-color="#E0B840"/><stop offset="100%" stop-color="#C89828"/></radialGradient>
<radialGradient id="d" cx="32%" cy="32%" r="35%"><stop offset="0%" stop-color="#fff" stop-opacity=".22"/><stop offset="100%" stop-color="#fff" stop-opacity="0"/></radialGradient>
<linearGradient id="e" x1="0" y1="0" x2="1" y2="0"><stop offset="0%" stop-color="#C4956A"/><stop offset="50%" stop-color="#A0724E"/><stop offset="100%" stop-color="#7A5535"/></linearGradient>
<radialGradient id="f" cx="45%" cy="42%" r="50%"><stop offset="0%" stop-color="#FFB820"/><stop offset="100%" stop-color="#E89010"/></radialGradient>
<radialGradient id="g" cx="38%" cy="38%" r="55%"><stop offset="0%" stop-color="#D4A080"/><stop offset="100%" stop-color="#8B5E3C"/></radialGradient>
</defs>
<circle cx="200" cy="200" r="198" fill="url(#a)"/>
<circle cx="200" cy="200" r="175" fill="url(#b)"/>
<circle cx="200" cy="200" r="165" fill="#5A4530" opacity=".4"/>
<circle cx="200" cy="200" r="158" fill="url(#c)"/>
<g fill="none" stroke="#F0D870" stroke-width="2.8" opacity=".65">
<path d="M105,185Q145,165 190,190Q235,215 280,185"/>
<path d="M100,205Q150,235 200,205Q250,175 295,208"/>
<path d="M108,225Q155,198 205,228Q255,258 290,225"/>
<path d="M125,242Q168,215 215,245Q260,272 280,238"/>
<path d="M115,168Q160,192 210,168Q258,145 285,175"/>
<path d="M135,258Q172,238 218,260Q258,278 275,252"/></g>
<rect x="88" y="138" width="36" height="66" rx="2" fill="#1A3A1A" opacity=".9"/>
<g stroke="#0D2A0D" stroke-width=".6" opacity=".4">
<line x1="94" y1="142" x2="94" y2="200"/><line x1="102" y1="142" x2="102" y2="200"/>
<line x1="110" y1="142" x2="110" y2="200"/><line x1="118" y1="142" x2="118" y2="200"/></g>
<circle cx="172" cy="232" r="28" fill="url(#g)" stroke="#6B3E2A" stroke-width=".8"/>
<path d="M158,227Q170,238 184,223" fill="none" stroke="#6B3E2A" stroke-width=".7" opacity=".5"/>
<path d="M162,240Q175,230 188,238" fill="none" stroke="#6B3E2A" stroke-width=".6" opacity=".4"/>
<circle cx="192" cy="248" r="28" fill="url(#g)" stroke="#6B3E2A" stroke-width=".8"/>
<path d="M178,243Q190,254 206,240" fill="none" stroke="#6B3E2A" stroke-width=".7" opacity=".5"/>
<ellipse cx="272" cy="148" rx="30" ry="22" fill="#FFF8E8" stroke="#D8C8A0" stroke-width=".8"/>
<ellipse cx="272" cy="148" rx="14" ry="10" fill="url(#f)"/>
<circle cx="282" cy="218" r="18" fill="#FFF0F0" stroke="#E8D0D0" stroke-width=".8"/>
<path d="M282,203Q292,210 282,218Q272,226 282,233" fill="none" stroke="#E87090" stroke-width="2.2"/>
<path d="M218,292A18,11 0 0,1 254,292" fill="#8B6E50" stroke="#6B4E30" stroke-width=".7"/>
<path d="M224,292L227,282" fill="none" stroke="#6B4E30" stroke-width=".5" opacity=".4"/>
<path d="M238,292L236,281" fill="none" stroke="#6B4E30" stroke-width=".5" opacity=".4"/>
<g fill="#F0D020"><circle cx="298" cy="268" r="4"/><circle cx="306" cy="266" r="4"/><circle cx="302" cy="274" r="4"/>
<circle cx="294" cy="276" r="3.5"/><circle cx="310" cy="273" r="3.5"/><circle cx="298" cy="260" r="3.5"/></g>
<g fill="#60C050" stroke="#3A8A2A" stroke-width=".6" opacity=".85">
<circle cx="148" cy="162" r="5.5"/><circle cx="238" cy="272" r="5"/><circle cx="312" cy="192" r="4.5"/><circle cx="158" cy="282" r="4"/></g>
<circle cx="200" cy="200" r="158" fill="url(#d)"/>
<rect x="285" y="48" width="7" height="195" rx="3" fill="url(#e)" transform="rotate(35,315,98)"/>
<rect x="295" y="52" width="7" height="195" rx="3" fill="url(#e)" transform="rotate(33,322,102)"/>
</svg>