<svg xmlns="http://www.w3.org/2000/svg" viewBox="0 0 400 400"> <defs> <radialGradient id="bowlRim" cx="50%" cy="50%" r="50%"> <stop offset="70%" stop-color="#D4B08C"/> <stop offset="100%" stop-color="#B8926A"/> </radialGradient> <radialGradient id="broth" cx="45%" cy="42%" r="50%"> <stop offset="0%" stop-color="#C83020"/> <stop offset="100%" stop-color="#A02818"/> </radialGradient> <radialGradient id="yolkGrad" cx="40%" cy="35%" r="55%"> <stop offset="0%" stop-color="#F8B830"/> <stop offset="100%" stop-color="#E08820"/> </radialGradient> <linearGradient id="chopGrad" x1="0" y1="0" x2="0" y2="1"> <stop offset="0%" stop-color="#D2691E"/> <stop offset="50%" stop-color="#A0522D"/> <stop offset="100%" stop-color="#6B3A1F"/> </linearGradient> <radialGradient id="brothEdge" cx="50%" cy="50%" r="50%"> <stop offset="60%" stop-color="transparent"/> <stop offset="100%" stop-color="rgba(0,0,0,0.18)"/> </radialGradient> <radialGradient id="highlight" cx="38%" cy="35%" r="40%"> <stop offset="0%" stop-color="#FFF" stop-opacity="0.12"/> <stop offset="100%" stop-color="#FFF" stop-opacity="0"/> </radialGradient> </defs> <ellipse cx="204" cy="208" rx="155" ry="155" fill="rgba(0,0,0,0.1)"/> <circle cx="200" cy="200" r="160" fill="url(#bowlRim)"/> <circle cx="200" cy="200" r="148" fill="url(#bowlRim)" stroke="#A07A52" stroke-width="0.5"/> <circle cx="200" cy="200" r="142" fill="url(#broth)"/> <circle cx="200" cy="200" r="142" fill="url(#brothEdge)"/> <circle cx="175" cy="170" r="5" fill="#E03020" opacity="0.35"/> <circle cx="230" cy="250" r="4" fill="#D02818" opacity="0.3"/> <circle cx="250" cy="170" r="3.5" fill="#E03020" opacity="0.28"/> <circle cx="160" cy="240" r="4.5" fill="#D02818" opacity="0.32"/> <path d="M130,200 Q160,170 200,180 Q240,190 260,210 Q280,230 300,215" stroke="#F0D080" stroke-width="3" fill="none" opacity="0.5"/> <path d="M120,220 Q155,195 190,215 Q225,235 270,200" stroke="#E8C870" stroke-width="2.5" fill="none" opacity="0.45"/> <path d="M140,240 Q180,210 220,230 Q260,250 290,225" stroke="#F0D080" stroke-width="2.8" fill="none" opacity="0.4"/> <path d="M150,180 Q185,165 215,185 Q250,200 280,185" stroke="#E8C870" stroke-width="2.5" fill="none" opacity="0.55"/> <path d="M110,195 Q150,230 200,205 Q250,180 285,200" stroke="#F0D080" stroke-width="3" fill="none" opacity="0.4"/> <rect x="185" y="75" width="30" height="16" rx="2" fill="#1A3020" opacity="0.85"/> <rect x="186" y="76" width="28" height="14" rx="1.5" fill="#2A4030"/> <line x1="190" y1="79" x2="190" y2="87" stroke="#1A3020" stroke-width="0.3" opacity="0.4"/> <line x1="194" y1="79" x2="194" y2="87" stroke="#1A3020" stroke-width="0.3" opacity="0.4"/> <line x1="198" y1="79" x2="198" y2="87" stroke="#1A3020" stroke-width="0.3" opacity="0.4"/> <line x1="202" y1="79" x2="202" y2="87" stroke="#1A3020" stroke-width="0.3" opacity="0.4"/> <g transform="translate(225,82)"> <path d="M0,0 Q-2,-4 -1,-10 Q0,-12 1,-10 Q2,-4 0,0" fill="#D32F2F"/> <path d="M-1,-10 Q0,-14 1,-10" fill="#388E3C"/> </g> <g transform="translate(170,85) rotate(15)"> <path d="M0,0 Q-2,-4 -1,-10 Q0,-12 1,-10 Q2,-4 0,0" fill="#C62828"/> <path d="M-1,-10 Q0,-14 1,-10" fill="#2E7D32"/> </g> <g transform="translate(118,152)"> <circle cx="0" cy="0" r="18" fill="#C4845C"/> <circle cx="0" cy="0" r="16" fill="#D4946C"/> <path d="M-10,-5 Q-3,-9 5,-3 Q10,5 3,9" stroke="#E8C0A0" stroke-width="1.5" fill="none" opacity="0.6"/> <path d="M-7,7 Q0,3 7,7" stroke="#E8C0A0" stroke-width="1" fill="none" opacity="0.5"/> <path d="M-12,0 Q-6,-2 0,0 Q6,2 12,0" stroke="#8B5A3C" stroke-width="0.8" fill="none" opacity="0.3"/> </g> <g transform="translate(138,168)"> <circle cx="0" cy="0" r="17" fill="#C4845C"/> <circle cx="0" cy="0" r="15" fill="#D4946C"/> <path d="M-8,-4 Q-2,-8 4,-2 Q8,4 2,8" stroke="#E8C0A0" stroke-width="1.5" fill="none" opacity="0.6"/> <path d="M-6,6 Q0,2 6,6" stroke="#E8C0A0" stroke-width="1" fill="none" opacity="0.5"/> <path d="M-11,0 Q-5,-2 0,0 Q5,2 11,0" stroke="#8B5A3C" stroke-width="0.8" fill="none" opacity="0.3"/> </g> <g transform="translate(278,128)"> <ellipse cx="0" cy="0" rx="20" ry="15" fill="#F5F0E0" stroke="#E8DCC8" stroke-width="0.5"/> <circle cx="0" cy="0" r="8" fill="#F0A030"/> <circle cx="0" cy="0" r="7" fill="url(#yolkGrad)"/> <circle cx="-2" cy="-2" r="3" fill="#F8C040" opacity="0.6"/> </g> <g transform="translate(270,278)"> <circle cx="0" cy="0" r="13" fill="#FFF5F0" stroke="#F0E0D8" stroke-width="0.5"/> <path d="M0,-6 Q6,-6 6,0 Q6,4 2,4 Q-2,4 -2,1 Q-2,-2 0,-2" stroke="#E88090" stroke-width="2" fill="none"/> </g> <g transform="translate(118,278)"> <path d="M-9,4 Q-9,-5 0,-7 Q9,-5 9,4 Z" fill="#8D6E63" stroke="#6D4C41" stroke-width="0.5"/> <path d="M-7,4 L-7,9 L7,9 L7,4" fill="#D7CCC8"/> </g> <g transform="translate(292,238)"> <circle cx="0" cy="0" r="2.5" fill="#FFD54F"/> <circle cx="4" cy="1" r="2.5" fill="#FFCA28"/> <circle cx="2" cy="4" r="2.5" fill="#FFD54F"/> <circle cx="-2" cy="3" r="2.5" fill="#FFC107"/> <circle cx="6" cy="4" r="2.5" fill="#FFD54F"/> <circle cx="1" cy="-3" r="2.5" fill="#FFCA28"/> </g> <circle cx="218" cy="158" r="3.5" fill="#4CAF50" stroke="#388E3C" stroke-width="0.5"/><circle cx="218" cy="158" r="1.5" fill="#66BB6A"/> <circle cx="178" cy="248" r="3.5" fill="#4CAF50" stroke="#388E3C" stroke-width="0.5"/><circle cx="178" cy="248" r="1.5" fill="#66BB6A"/> <circle cx="238" cy="218" r="3" fill="#4CAF50" stroke="#388E3C" stroke-width="0.5"/><circle cx="238" cy="218" r="1.2" fill="#66BB6A"/> <circle cx="163" cy="198" r="3.5" fill="#4CAF50" stroke="#388E3C" stroke-width="0.5"/><circle cx="163" cy="198" r="1.5" fill="#66BB6A"/> <circle cx="200" cy="200" r="142" fill="url(#highlight)"/> <g transform="translate(295,80) rotate(30)"> <rect x="0" y="0" width="4.5" height="95" rx="1.5" fill="url(#chopGrad)" opacity="0.9"/> <rect x="9" y="0" width="4.5" height="95" rx="1.5" fill="url(#chopGrad)" opacity="0.85"/> </g> </svg>