<svg xmlns="http://www.w3.org/2000/svg" viewBox="0 0 400 400"> <defs> <radialGradient id="bowlRim" cx="50%" cy="50%" r="50%"> <stop offset="70%" stop-color="#3A3A3A"/> <stop offset="100%" stop-color="#2A2A2A"/> </radialGradient> <radialGradient id="broth" cx="45%" cy="42%" r="50%"> <stop offset="0%" stop-color="#8B2520"/> <stop offset="100%" stop-color="#6B1818"/> </radialGradient> <radialGradient id="yolkGrad" cx="40%" cy="35%" r="55%"> <stop offset="0%" stop-color="#F8B830"/> <stop offset="100%" stop-color="#E08820"/> </radialGradient> <linearGradient id="chopGrad" x1="0" y1="0" x2="0" y2="1"> <stop offset="0%" stop-color="#D2691E"/> <stop offset="50%" stop-color="#A0522D"/> <stop offset="100%" stop-color="#6B3A1F"/> </linearGradient> <radialGradient id="brothEdge" cx="50%" cy="50%" r="50%"> <stop offset="60%" stop-color="transparent"/> <stop offset="100%" stop-color="rgba(0,0,0,0.22)"/> </radialGradient> <radialGradient id="highlight" cx="38%" cy="35%" r="40%"> <stop offset="0%" stop-color="#FFF" stop-opacity="0.1"/> <stop offset="100%" stop-color="#FFF" stop-opacity="0"/> </radialGradient> </defs> <ellipse cx="204" cy="208" rx="155" ry="155" fill="rgba(0,0,0,0.12)"/> <circle cx="200" cy="200" r="160" fill="url(#bowlRim)"/> <circle cx="200" cy="200" r="148" fill="url(#bowlRim)" stroke="#1A1A1A" stroke-width="0.5"/> <circle cx="200" cy="200" r="142" fill="url(#broth)"/> <circle cx="200" cy="200" r="142" fill="url(#brothEdge)"/> <path d="M150,180 Q170,160 200,170 Q230,180 240,165" stroke="#C02010" stroke-width="1.5" fill="none" opacity="0.4"/> <path d="M170,230 Q200,215 230,230 Q250,240 260,225" stroke="#B01810" stroke-width="1.2" fill="none" opacity="0.35"/> <path d="M130,210 Q155,195 175,210" stroke="#C02010" stroke-width="1" fill="none" opacity="0.3"/> <path d="M125,195 Q160,168 200,178 Q242,188 265,208 Q285,228 305,212" stroke="#F0D080" stroke-width="3" fill="none" opacity="0.5"/> <path d="M115,218 Q150,192 188,212 Q228,232 275,198" stroke="#E8C870" stroke-width="2.5" fill="none" opacity="0.45"/> <path d="M138,238 Q178,208 218,228 Q258,248 292,222" stroke="#F0D080" stroke-width="2.8" fill="none" opacity="0.42"/> <path d="M148,178 Q182,162 212,182 Q248,198 282,182" stroke="#E8C870" stroke-width="2.5" fill="none" opacity="0.55"/> <path d="M108,198 Q148,228 198,202 Q248,178 288,198" stroke="#F0D080" stroke-width="3" fill="none" opacity="0.38"/> <g transform="translate(115,105) rotate(-15)"> <rect x="0" y="0" width="30" height="16" rx="2" fill="#1A3020" opacity="0.85"/> <rect x="1" y="1" width="28" height="14" rx="1.5" fill="#2A4030"/> <line x1="5" y1="4" x2="5" y2="12" stroke="#1A3020" stroke-width="0.3" opacity="0.4"/> <line x1="9" y1="4" x2="9" y2="12" stroke="#1A3020" stroke-width="0.3" opacity="0.4"/> <line x1="13" y1="4" x2="13" y2="12" stroke="#1A3020" stroke-width="0.3" opacity="0.4"/> </g> <g transform="translate(150,100)"> <path d="M0,0 Q-2,-4 -1,-10 Q0,-12 1,-10 Q2,-4 0,0" fill="#D32F2F"/> <path d="M-1,-10 Q0,-14 1,-10" fill="#388E3C"/> </g> <g transform="translate(108,118) rotate(25)"> <path d="M0,0 Q-2,-4 -1,-10 Q0,-12 1,-10 Q2,-4 0,0" fill="#C62828"/> <path d="M-1,-10 Q0,-14 1,-10" fill="#2E7D32"/> </g> <g transform="translate(100,195)"> <circle cx="0" cy="0" r="18" fill="#C4845C"/> <circle cx="0" cy="0" r="16" fill="#D4946C"/> <path d="M-10,-5 Q-3,-9 5,-3 Q10,5 3,9" stroke="#E8C0A0" stroke-width="1.5" fill="none" opacity="0.6"/> <path d="M-7,7 Q0,3 7,7" stroke="#E8C0A0" stroke-width="1" fill="none" opacity="0.5"/> <path d="M-12,0 Q-6,-2 0,0 Q6,2 12,0" stroke="#8B5A3C" stroke-width="0.8" fill="none" opacity="0.3"/> </g> <g transform="translate(115,215)"> <circle cx="0" cy="0" r="17" fill="#C4845C"/> <circle cx="0" cy="0" r="15" fill="#D4946C"/> <path d="M-8,-4 Q-2,-8 4,-2 Q8,4 2,8" stroke="#E8C0A0" stroke-width="1.5" fill="none" opacity="0.6"/> <path d="M-6,6 Q0,2 6,6" stroke="#E8C0A0" stroke-width="1" fill="none" opacity="0.5"/> </g> <g transform="translate(280,115)"> <ellipse cx="0" cy="0" rx="20" ry="15" fill="#F5F0E0" stroke="#E8DCC8" stroke-width="0.5"/> <circle cx="0" cy="0" r="8" fill="#F0A030"/> <circle cx="0" cy="0" r="7" fill="url(#yolkGrad)"/> <circle cx="-2" cy="-2" r="3" fill="#F8C040" opacity="0.6"/> </g> <g transform="translate(200,298)"> <circle cx="0" cy="0" r="13" fill="#FFF5F0" stroke="#F0E0D8" stroke-width="0.5"/> <path d="M0,-6 Q6,-6 6,0 Q6,4 2,4 Q-2,4 -2,1 Q-2,-2 0,-2" stroke="#E88090" stroke-width="2" fill="none"/> </g> <g transform="translate(285,240)"> <path d="M0,0 Q4,-6 2,-12" stroke="#F5F0E0" stroke-width="1.5" fill="none"/><circle cx="2" cy="-12" r="1.5" fill="#F0EBD8"/> <path d="M5,2 Q8,-4 7,-11" stroke="#F5F0E0" stroke-width="1.5" fill="none"/><circle cx="7" cy="-11" r="1.5" fill="#F0EBD8"/> <path d="M-4,1 Q-1,-5 -3,-11" stroke="#F5F0E0" stroke-width="1.5" fill="none"/><circle cx="-3" cy="-11" r="1.5" fill="#F0EBD8"/> </g> <ellipse cx="180" cy="180" rx="1.5" ry="1" fill="#D4C4A0" opacity="0.7" transform="rotate(20,180,180)"/> <ellipse cx="220" cy="170" rx="1.5" ry="1" fill="#D4C4A0" opacity="0.7" transform="rotate(-10,220,170)"/> <ellipse cx="240" cy="200" rx="1.5" ry="1" fill="#D4C4A0" opacity="0.65"/> <ellipse cx="195" cy="230" rx="1.5" ry="1" fill="#D4C4A0" opacity="0.7" transform="rotate(5,195,230)"/> <ellipse cx="160" cy="210" rx="1.5" ry="1" fill="#D4C4A0" opacity="0.6"/> <ellipse cx="210" cy="150" rx="1.5" ry="1" fill="#D4C4A0" opacity="0.7"/> <ellipse cx="250" cy="260" rx="1.5" ry="1" fill="#D4C4A0" opacity="0.65"/> <ellipse cx="170" cy="270" rx="1.5" ry="1" fill="#D4C4A0" opacity="0.7"/> <circle cx="215" cy="155" r="3.5" fill="#4CAF50" stroke="#388E3C" stroke-width="0.5"/><circle cx="215" cy="155" r="1.5" fill="#66BB6A"/> <circle cx="175" cy="245" r="3.5" fill="#4CAF50" stroke="#388E3C" stroke-width="0.5"/><circle cx="175" cy="245" r="1.5" fill="#66BB6A"/> <circle cx="235" cy="215" r="3" fill="#4CAF50" stroke="#388E3C" stroke-width="0.5"/><circle cx="235" cy="215" r="1.2" fill="#66BB6A"/> <circle cx="195" cy="195" r="3.5" fill="#4CAF50" stroke="#388E3C" stroke-width="0.5"/><circle cx="195" cy="195" r="1.5" fill="#66BB6A"/> <circle cx="200" cy="200" r="142" fill="url(#highlight)"/> <g transform="translate(295,80) rotate(30)"> <rect x="0" y="0" width="4.5" height="95" rx="1.5" fill="url(#chopGrad)" opacity="0.9"/> <rect x="9" y="0" width="4.5" height="95" rx="1.5" fill="url(#chopGrad)" opacity="0.85"/> </g> </svg>