<svg xmlns="http://www.w3.org/2000/svg" viewBox="0 0 400 400"> <defs> <radialGradient id="bowlRim" cx="50%" cy="50%" r="50%"> <stop offset="70%" stop-color="#D4B08C"/> <stop offset="100%" stop-color="#B8926A"/> </radialGradient> <radialGradient id="broth" cx="45%" cy="42%" r="50%"> <stop offset="0%" stop-color="#D44D2D"/> <stop offset="100%" stop-color="#B83820"/> </radialGradient> <radialGradient id="yolkGrad" cx="40%" cy="35%" r="55%"> <stop offset="0%" stop-color="#F8B830"/> <stop offset="100%" stop-color="#E08820"/> </radialGradient> <linearGradient id="chopGrad" x1="0" y1="0" x2="0" y2="1"> <stop offset="0%" stop-color="#D2691E"/> <stop offset="50%" stop-color="#A0522D"/> <stop offset="100%" stop-color="#6B3A1F"/> </linearGradient> <radialGradient id="brothEdge" cx="50%" cy="50%" r="50%"> <stop offset="60%" stop-color="transparent"/> <stop offset="100%" stop-color="rgba(0,0,0,0.15)"/> </radialGradient> <radialGradient id="highlight" cx="38%" cy="35%" r="40%"> <stop offset="0%" stop-color="#FFF" stop-opacity="0.12"/> <stop offset="100%" stop-color="#FFF" stop-opacity="0"/> </radialGradient> </defs> <ellipse cx="204" cy="208" rx="155" ry="155" fill="rgba(0,0,0,0.1)"/> <circle cx="200" cy="200" r="160" fill="url(#bowlRim)"/> <circle cx="200" cy="200" r="148" fill="url(#bowlRim)" stroke="#A07A52" stroke-width="0.5"/> <circle cx="200" cy="200" r="142" fill="url(#broth)"/> <circle cx="200" cy="200" r="142" fill="url(#brothEdge)"/> <path d="M140,175 Q170,155 210,170 Q250,185 270,165 Q290,150 300,170" stroke="#FFF8F0" stroke-width="3" fill="none" opacity="0.35"/> <path d="M120,220 Q160,200 195,215 Q230,230 260,210" stroke="#FFF8F0" stroke-width="2.5" fill="none" opacity="0.25"/> <path d="M128,198 Q162,168 202,178 Q244,190 268,212 Q288,232 308,215" stroke="#F0D080" stroke-width="3" fill="none" opacity="0.5"/> <path d="M118,220 Q152,194 190,214 Q230,234 278,200" stroke="#E8C870" stroke-width="2.5" fill="none" opacity="0.45"/> <path d="M140,242 Q180,210 222,232 Q262,252 295,228" stroke="#F0D080" stroke-width="2.8" fill="none" opacity="0.42"/> <path d="M150,178 Q184,162 214,182 Q250,200 284,184" stroke="#E8C870" stroke-width="2.5" fill="none" opacity="0.55"/> <path d="M112,200 Q152,232 202,208 Q252,182 290,202" stroke="#F0D080" stroke-width="3" fill="none" opacity="0.38"/> <circle cx="190" cy="195" r="3" fill="#6D4C41" opacity="0.8"/> <circle cx="200" cy="200" r="2.5" fill="#795548" opacity="0.75"/> <circle cx="210" cy="193" r="2.8" fill="#6D4C41" opacity="0.8"/> <circle cx="195" cy="208" r="2.5" fill="#795548" opacity="0.7"/> <circle cx="205" cy="205" r="3" fill="#6D4C41" opacity="0.8"/> <circle cx="185" cy="203" r="2" fill="#795548" opacity="0.75"/> <circle cx="215" cy="202" r="2.5" fill="#6D4C41" opacity="0.7"/> <circle cx="198" cy="190" r="2.2" fill="#795548" opacity="0.8"/> <circle cx="208" cy="210" r="2.8" fill="#6D4C41" opacity="0.75"/> <g transform="translate(278,128)"> <ellipse cx="0" cy="0" rx="20" ry="15" fill="#F5F0E0" stroke="#E8DCC8" stroke-width="0.5"/> <circle cx="0" cy="0" r="8" fill="#F0A030"/> <circle cx="0" cy="0" r="7" fill="url(#yolkGrad)"/> <circle cx="-2" cy="-2" r="3" fill="#F8C040" opacity="0.6"/> </g> <g transform="translate(108,248)"> <path d="M-9,4 Q-9,-5 0,-7 Q9,-5 9,4 Z" fill="#8D6E63" stroke="#6D4C41" stroke-width="0.5"/> <path d="M-7,4 L-7,9 L7,9 L7,4" fill="#D7CCC8"/> </g> <g transform="translate(125,265)"> <path d="M-8,3 Q-8,-4 0,-6 Q8,-4 8,3 Z" fill="#8D6E63" stroke="#6D4C41" stroke-width="0.5"/> <path d="M-6,3 L-6,8 L6,8 L6,3" fill="#D7CCC8"/> </g> <g transform="translate(288,238)"> <path d="M0,0 Q4,-6 2,-12" stroke="#F5F0E0" stroke-width="1.5" fill="none"/><circle cx="2" cy="-12" r="1.5" fill="#F0EBD8"/> <path d="M5,2 Q8,-4 7,-11" stroke="#F5F0E0" stroke-width="1.5" fill="none"/><circle cx="7" cy="-11" r="1.5" fill="#F0EBD8"/> <path d="M-4,1 Q-1,-5 -3,-11" stroke="#F5F0E0" stroke-width="1.5" fill="none"/><circle cx="-3" cy="-11" r="1.5" fill="#F0EBD8"/> </g> <g transform="translate(195,85)"> <path d="M0,6 L0,0" stroke="#558B2F" stroke-width="1" fill="none"/> <path d="M-4,-2 Q-2,-6 0,0 Q2,-6 4,-2" fill="#66BB6A" opacity="0.85"/> <path d="M-6,0 Q-4,-4 -1,-1" fill="#7CB342" opacity="0.7"/> <path d="M6,0 Q4,-4 1,-1" fill="#7CB342" opacity="0.7"/> </g> <g transform="translate(210,80)"> <path d="M0,6 L0,0" stroke="#558B2F" stroke-width="1" fill="none"/> <path d="M-4,-2 Q-2,-6 0,0 Q2,-6 4,-2" fill="#66BB6A" opacity="0.85"/> <path d="M-5,0 Q-3,-4 -1,-1" fill="#7CB342" opacity="0.7"/> <path d="M5,0 Q3,-4 1,-1" fill="#7CB342" opacity="0.7"/> </g> <g transform="translate(200,300)"> <path d="M-14,0 L0,-12 L14,0 Z" fill="#8BC34A" stroke="#689F38" stroke-width="0.5"/> <path d="M-10,0 L0,-8 L10,0 Z" fill="#C5E1A5"/> <path d="M0,-7 L-3,-1" stroke="#9CCC65" stroke-width="0.5" opacity="0.6"/> <path d="M0,-7 L0,-1" stroke="#9CCC65" stroke-width="0.5" opacity="0.6"/> <path d="M0,-7 L3,-1" stroke="#9CCC65" stroke-width="0.5" opacity="0.6"/> </g> <circle cx="220" cy="158" r="3.5" fill="#4CAF50" stroke="#388E3C" stroke-width="0.5"/><circle cx="220" cy="158" r="1.5" fill="#66BB6A"/> <circle cx="175" cy="248" r="3.5" fill="#4CAF50" stroke="#388E3C" stroke-width="0.5"/><circle cx="175" cy="248" r="1.5" fill="#66BB6A"/> <circle cx="240" cy="218" r="3" fill="#4CAF50" stroke="#388E3C" stroke-width="0.5"/><circle cx="240" cy="218" r="1.2" fill="#66BB6A"/> <circle cx="165" cy="195" r="3.5" fill="#4CAF50" stroke="#388E3C" stroke-width="0.5"/><circle cx="165" cy="195" r="1.5" fill="#66BB6A"/> <circle cx="230" cy="270" r="3" fill="#4CAF50" stroke="#388E3C" stroke-width="0.5"/><circle cx="230" cy="270" r="1.2" fill="#66BB6A"/> <circle cx="200" cy="200" r="142" fill="url(#highlight)"/> <g transform="translate(295,80) rotate(30)"> <rect x="0" y="0" width="4.5" height="95" rx="1.5" fill="url(#chopGrad)" opacity="0.9"/> <rect x="9" y="0" width="4.5" height="95" rx="1.5" fill="url(#chopGrad)" opacity="0.85"/> </g> </svg>