<svg xmlns="http://www.w3.org/2000/svg" viewBox="0 0 400 400">
<defs>
<radialGradient id="a" cx="50%" cy="50%" r="50%"><stop offset="0%" stop-color="#F5D0B0"/><stop offset="100%" stop-color="#E8B890"/></radialGradient>
<radialGradient id="b" cx="50%" cy="50%" r="50%"><stop offset="0%" stop-color="#8B7355"/><stop offset="80%" stop-color="#6B5340"/><stop offset="100%" stop-color="#4A3728"/></radialGradient>
<radialGradient id="c" cx="42%" cy="42%" r="52%"><stop offset="0%" stop-color="#E0583D"/><stop offset="100%" stop-color="#C83D1D"/></radialGradient>
<radialGradient id="d" cx="32%" cy="32%" r="35%"><stop offset="0%" stop-color="#fff" stop-opacity=".18"/><stop offset="100%" stop-color="#fff" stop-opacity="0"/></radialGradient>
<linearGradient id="e" x1="0" y1="0" x2="1" y2="0"><stop offset="0%" stop-color="#C4956A"/><stop offset="50%" stop-color="#A0724E"/><stop offset="100%" stop-color="#7A5535"/></linearGradient>
<radialGradient id="f" cx="45%" cy="42%" r="50%"><stop offset="0%" stop-color="#FFB820"/><stop offset="100%" stop-color="#E89010"/></radialGradient>
</defs>
<circle cx="200" cy="200" r="198" fill="url(#a)"/>
<circle cx="200" cy="200" r="175" fill="url(#b)"/>
<circle cx="200" cy="200" r="165" fill="#5A4530" opacity=".4"/>
<circle cx="200" cy="200" r="158" fill="url(#c)"/>
<g fill="none" stroke="#FFF8F0" stroke-width="3" opacity=".4">
<path d="M158,162Q198,152 208,192Q218,232 258,222"/>
<path d="M138,212Q168,202 178,232Q188,262 228,252"/>
<path d="M198,142Q228,162 218,202Q208,242 248,252"/></g>
<g fill="none" stroke="#F0D070" stroke-width="2.8" opacity=".5">
<path d="M105,188Q148,165 195,192Q242,222 282,188"/>
<path d="M100,208Q150,235 200,208Q250,182 295,212"/>
<path d="M108,228Q155,202 205,232Q255,262 290,228"/>
<path d="M128,248Q168,218 215,248Q260,275 278,242"/>
<path d="M118,172Q162,195 212,172Q258,148 285,178"/></g>
<g fill="#7A4A2A" opacity=".72">
<circle cx="148" cy="182" r="3"/><circle cx="163" cy="192" r="2.5"/><circle cx="153" cy="202" r="3"/>
<circle cx="173" cy="188" r="2"/><circle cx="138" cy="198" r="2.5"/><circle cx="158" cy="212" r="2"/>
<circle cx="228" cy="252" r="3"/><circle cx="243" cy="258" r="2.5"/><circle cx="236" cy="266" r="2"/>
<circle cx="218" cy="262" r="2.5"/><circle cx="248" cy="248" r="2"/></g>
<ellipse cx="278" cy="148" rx="30" ry="22" fill="#FFF8E8" stroke="#D8C8A0" stroke-width=".8"/>
<ellipse cx="278" cy="148" rx="14" ry="10" fill="url(#f)"/>
<path d="M152,242A17,10 0 0,1 186,242" fill="#8B6E50" stroke="#6B4E30" stroke-width=".7"/>
<path d="M158,242L161,233" fill="none" stroke="#6B4E30" stroke-width=".5" opacity=".4"/>
<path d="M268,268A17,10 0 0,1 302,268" fill="#8B6E50" stroke="#6B4E30" stroke-width=".7"/>
<g fill="none" stroke="#E8E0C8" stroke-width="1.4" opacity=".6">
<path d="M198,278Q204,266 210,272"/><path d="M214,282Q218,270 224,275"/>
<path d="M226,285Q232,273 238,279"/><path d="M188,282Q194,270 200,276"/></g>
<g fill="#3A8A2A" opacity=".85">
<path d="M288,192Q293,182 298,192Q293,197 288,192"/>
<path d="M296,190Q301,180 306,190Q301,195 296,190"/>
<path d="M292,199Q297,189 302,199Q297,204 292,199"/>
<path d="M118,262Q123,252 128,262Q123,267 118,262"/>
<path d="M126,260Q131,250 136,260Q131,265 126,260"/>
<path d="M122,269Q127,259 132,269Q127,274 122,269"/></g>
<path d="M302,152L325,168L308,178Z" fill="#80C040" stroke="#60A030" stroke-width=".8"/>
<path d="M308,158L318,166" fill="none" stroke="#A0D860" stroke-width=".7"/>
<path d="M306,165L316,172" fill="none" stroke="#A0D860" stroke-width=".7"/>
<g fill="#60C050" stroke="#3A8A2A" stroke-width=".6" opacity=".85">
<circle cx="182" cy="168" r="5.5"/><circle cx="258" cy="232" r="4.5"/>
<circle cx="312" cy="218" r="4"/><circle cx="172" cy="278" r="5"/></g>
<circle cx="200" cy="200" r="158" fill="url(#d)"/>
<rect x="285" y="48" width="7" height="195" rx="3" fill="url(#e)" transform="rotate(35,315,98)"/>
<rect x="295" y="52" width="7" height="195" rx="3" fill="url(#e)" transform="rotate(33,322,102)"/>
</svg>