<svg xmlns="http://www.w3.org/2000/svg" viewBox="0 0 400 400">
<defs>
<radialGradient id="a" cx="50%" cy="50%" r="50%"><stop offset="0%" stop-color="#FFF8F0"/><stop offset="100%" stop-color="#F0E8D8"/></radialGradient>
<radialGradient id="b" cx="50%" cy="50%" r="50%"><stop offset="0%" stop-color="#8B7355"/><stop offset="80%" stop-color="#6B5340"/><stop offset="100%" stop-color="#4A3728"/></radialGradient>
<radialGradient id="c" cx="42%" cy="42%" r="52%"><stop offset="0%" stop-color="#F8F0E0"/><stop offset="100%" stop-color="#E8D8C0"/></radialGradient>
<radialGradient id="d" cx="32%" cy="32%" r="35%"><stop offset="0%" stop-color="#fff" stop-opacity=".28"/><stop offset="100%" stop-color="#fff" stop-opacity="0"/></radialGradient>
<linearGradient id="e" x1="0" y1="0" x2="1" y2="0"><stop offset="0%" stop-color="#C4956A"/><stop offset="50%" stop-color="#A0724E"/><stop offset="100%" stop-color="#7A5535"/></linearGradient>
<radialGradient id="f" cx="45%" cy="42%" r="50%"><stop offset="0%" stop-color="#FFB820"/><stop offset="100%" stop-color="#E89010"/></radialGradient>
<radialGradient id="g" cx="38%" cy="38%" r="55%"><stop offset="0%" stop-color="#D4A080"/><stop offset="100%" stop-color="#8B5E3C"/></radialGradient>
</defs>
<circle cx="200" cy="200" r="198" fill="url(#a)"/>
<circle cx="200" cy="200" r="175" fill="url(#b)"/>
<circle cx="200" cy="200" r="165" fill="#5A4530" opacity=".4"/>
<circle cx="200" cy="200" r="158" fill="url(#c)"/>
<g fill="none" stroke="#E8D090" stroke-width="2.8" opacity=".45">
<path d="M105,182Q148,158 195,188Q242,218 282,182"/>
<path d="M100,205Q150,232 200,205Q250,178 295,208"/>
<path d="M108,225Q155,198 205,228Q255,258 290,225"/>
<path d="M128,242Q168,215 215,245Q260,272 278,238"/>
<path d="M118,168Q162,192 212,168Q258,148 285,175"/>
<path d="M135,258Q172,238 218,260Q258,278 275,252"/></g>
<rect x="85" y="128" width="38" height="72" rx="2" fill="#1A3A1A" opacity=".9"/>
<g stroke="#0D2A0D" stroke-width=".6" opacity=".4">
<line x1="91" y1="132" x2="91" y2="196"/><line x1="99" y1="132" x2="99" y2="196"/>
<line x1="107" y1="132" x2="107" y2="196"/><line x1="115" y1="132" x2="115" y2="196"/></g>
<circle cx="165" cy="228" r="32" fill="url(#g)" stroke="#6B3E2A" stroke-width="1"/>
<path d="M145,222Q160,236 180,218" fill="none" stroke="#6B3E2A" stroke-width=".8" opacity=".5"/>
<path d="M148,238Q165,228 184,236" fill="none" stroke="#6B3E2A" stroke-width=".7" opacity=".4"/>
<circle cx="192" cy="250" r="32" fill="url(#g)" stroke="#6B3E2A" stroke-width="1"/>
<path d="M172,244Q188,258 208,242" fill="none" stroke="#6B3E2A" stroke-width=".8" opacity=".5"/>
<ellipse cx="278" cy="148" rx="30" ry="22" fill="#FFF8E8" stroke="#D8C8A0" stroke-width=".8"/>
<ellipse cx="278" cy="148" rx="14" ry="10" fill="url(#f)"/>
<circle cx="282" cy="222" r="18" fill="#FFF0F0" stroke="#E8D0D0" stroke-width=".8"/>
<path d="M282,207Q292,214 282,222Q272,230 282,237" fill="none" stroke="#E87090" stroke-width="2.2"/>
<path d="M218,288Q226,275 238,280Q250,285 246,296Q238,302 226,298Q216,294 218,288" fill="#3A2A1A" opacity=".8"/>
<path d="M244,283Q252,270 264,276Q274,282 268,292Q260,298 250,294Q242,288 244,283" fill="#3A2A1A" opacity=".75"/>
<g fill="#60C050" stroke="#3A8A2A" stroke-width=".6" opacity=".85">
<circle cx="146" cy="155" r="5.5"/><circle cx="305" cy="188" r="4.5"/>
<circle cx="238" cy="268" r="5"/><circle cx="158" cy="282" r="4"/><circle cx="298" cy="262" r="4"/></g>
<circle cx="200" cy="200" r="158" fill="url(#d)"/>
<rect x="285" y="48" width="7" height="195" rx="3" fill="url(#e)" transform="rotate(35,315,98)"/>
<rect x="295" y="52" width="7" height="195" rx="3" fill="url(#e)" transform="rotate(33,322,102)"/>
</svg>