<svg xmlns="http://www.w3.org/2000/svg" viewBox="0 0 400 400"> <defs> <radialGradient id="bowlRim" cx="50%" cy="50%" r="50%"> <stop offset="70%" stop-color="#D4B08C"/> <stop offset="100%" stop-color="#B8926A"/> </radialGradient> <radialGradient id="broth" cx="45%" cy="42%" r="50%"> <stop offset="0%" stop-color="#F5ECD0"/> <stop offset="100%" stop-color="#E8D8B0"/> </radialGradient> <radialGradient id="yolkGrad" cx="40%" cy="35%" r="55%"> <stop offset="0%" stop-color="#F8B830"/> <stop offset="100%" stop-color="#E08820"/> </radialGradient> <linearGradient id="chopGrad" x1="0" y1="0" x2="0" y2="1"> <stop offset="0%" stop-color="#D2691E"/> <stop offset="50%" stop-color="#A0522D"/> <stop offset="100%" stop-color="#6B3A1F"/> </linearGradient> <radialGradient id="brothEdge" cx="50%" cy="50%" r="50%"> <stop offset="60%" stop-color="transparent"/> <stop offset="100%" stop-color="rgba(0,0,0,0.08)"/> </radialGradient> <radialGradient id="highlight" cx="35%" cy="33%" r="38%"> <stop offset="0%" stop-color="#FFF" stop-opacity="0.18"/> <stop offset="100%" stop-color="#FFF" stop-opacity="0"/> </radialGradient> </defs> <ellipse cx="204" cy="208" rx="155" ry="155" fill="rgba(0,0,0,0.1)"/> <circle cx="200" cy="200" r="160" fill="url(#bowlRim)"/> <circle cx="200" cy="200" r="148" fill="url(#bowlRim)" stroke="#A07A52" stroke-width="0.5"/> <circle cx="200" cy="200" r="142" fill="url(#broth)"/> <circle cx="200" cy="200" r="142" fill="url(#brothEdge)"/> <path d="M128,198 Q162,168 202,178 Q244,190 268,212 Q288,232 308,215" stroke="#E8C860" stroke-width="3.2" fill="none" opacity="0.6"/> <path d="M118,220 Q152,194 190,214 Q230,234 278,200" stroke="#DCC050" stroke-width="2.8" fill="none" opacity="0.55"/> <path d="M140,242 Q180,210 222,232 Q262,252 295,228" stroke="#E8C860" stroke-width="3" fill="none" opacity="0.5"/> <path d="M150,178 Q184,162 214,182 Q250,200 284,184" stroke="#DCC050" stroke-width="2.8" fill="none" opacity="0.65"/> <path d="M112,200 Q152,232 202,208 Q252,182 290,202" stroke="#E8C860" stroke-width="3.2" fill="none" opacity="0.45"/> <rect x="183" y="73" width="32" height="18" rx="2" fill="#1A3020" opacity="0.85"/> <rect x="184" y="74" width="30" height="16" rx="1.5" fill="#2A4030"/> <line x1="188" y1="77" x2="188" y2="87" stroke="#1A3020" stroke-width="0.3" opacity="0.4"/> <line x1="192" y1="77" x2="192" y2="87" stroke="#1A3020" stroke-width="0.3" opacity="0.4"/> <line x1="196" y1="77" x2="196" y2="87" stroke="#1A3020" stroke-width="0.3" opacity="0.4"/> <line x1="200" y1="77" x2="200" y2="87" stroke="#1A3020" stroke-width="0.3" opacity="0.4"/> <line x1="204" y1="77" x2="204" y2="87" stroke="#1A3020" stroke-width="0.3" opacity="0.4"/> <g transform="translate(115,148)"> <circle cx="0" cy="0" r="22" fill="#C4845C"/> <circle cx="0" cy="0" r="20" fill="#D4946C"/> <path d="M-12,-6 Q-4,-11 6,-4 Q12,6 4,11" stroke="#E8C0A0" stroke-width="2" fill="none" opacity="0.6"/> <path d="M-9,8 Q0,4 9,8" stroke="#E8C0A0" stroke-width="1.5" fill="none" opacity="0.5"/> <path d="M-8,-2 Q0,-6 8,-2" stroke="#E8C0A0" stroke-width="1" fill="none" opacity="0.4"/> <path d="M-15,0 Q-8,-3 0,0 Q8,3 15,0" stroke="#8B5A3C" stroke-width="1" fill="none" opacity="0.3"/> </g> <g transform="translate(138,172)"> <circle cx="0" cy="0" r="21" fill="#C4845C"/> <circle cx="0" cy="0" r="19" fill="#D4946C"/> <path d="M-10,-5 Q-3,-9 5,-3 Q10,5 3,9" stroke="#E8C0A0" stroke-width="2" fill="none" opacity="0.6"/> <path d="M-8,7 Q0,3 8,7" stroke="#E8C0A0" stroke-width="1.5" fill="none" opacity="0.5"/> <path d="M-14,0 Q-7,-2 0,0 Q7,2 14,0" stroke="#8B5A3C" stroke-width="1" fill="none" opacity="0.3"/> </g> <g transform="translate(280,125)"> <ellipse cx="0" cy="0" rx="20" ry="15" fill="#F5F0E0" stroke="#E8DCC8" stroke-width="0.5"/> <circle cx="0" cy="0" r="8" fill="#F0A030"/> <circle cx="0" cy="0" r="7" fill="url(#yolkGrad)"/> <circle cx="-2" cy="-2" r="3" fill="#F8C040" opacity="0.6"/> </g> <g transform="translate(272,275)"> <circle cx="0" cy="0" r="13" fill="#FFF5F0" stroke="#F0E0D8" stroke-width="0.5"/> <path d="M0,-6 Q6,-6 6,0 Q6,4 2,4 Q-2,4 -2,1 Q-2,-2 0,-2" stroke="#E88090" stroke-width="2" fill="none"/> </g> <g transform="translate(115,275)"> <path d="M-12,0 Q-10,-8 -4,-6 Q2,-10 8,-6 Q14,-8 12,0 Q10,5 0,6 Q-10,5 -12,0Z" fill="#4E342E" stroke="#3E2723" stroke-width="0.5" opacity="0.9"/> <path d="M-8,0 Q-5,-4 0,-3 Q5,-5 8,-2" stroke="#5D4037" stroke-width="0.8" fill="none" opacity="0.5"/> </g> <g transform="translate(100,260)"> <path d="M-10,0 Q-8,-7 -2,-5 Q4,-8 9,-5 Q12,-7 10,0 Q8,4 0,5 Q-8,4 -10,0Z" fill="#4E342E" stroke="#3E2723" stroke-width="0.5" opacity="0.85"/> <path d="M-6,0 Q-3,-3 2,-2 Q6,-4 8,-1" stroke="#5D4037" stroke-width="0.8" fill="none" opacity="0.5"/> </g> <circle cx="218" cy="155" r="3.5" fill="#4CAF50" stroke="#388E3C" stroke-width="0.5"/><circle cx="218" cy="155" r="1.5" fill="#66BB6A"/> <circle cx="180" cy="248" r="3.5" fill="#4CAF50" stroke="#388E3C" stroke-width="0.5"/><circle cx="180" cy="248" r="1.5" fill="#66BB6A"/> <circle cx="240" cy="218" r="3" fill="#4CAF50" stroke="#388E3C" stroke-width="0.5"/><circle cx="240" cy="218" r="1.2" fill="#66BB6A"/> <circle cx="200" cy="195" r="3.5" fill="#4CAF50" stroke="#388E3C" stroke-width="0.5"/><circle cx="200" cy="195" r="1.5" fill="#66BB6A"/> <circle cx="165" cy="198" r="3" fill="#4CAF50" stroke="#388E3C" stroke-width="0.5"/><circle cx="165" cy="198" r="1.2" fill="#66BB6A"/> <circle cx="230" cy="170" r="3.5" fill="#4CAF50" stroke="#388E3C" stroke-width="0.5"/><circle cx="230" cy="170" r="1.5" fill="#66BB6A"/> <circle cx="200" cy="200" r="142" fill="url(#highlight)"/> <g transform="translate(295,80) rotate(30)"> <rect x="0" y="0" width="4.5" height="95" rx="1.5" fill="url(#chopGrad)" opacity="0.9"/> <rect x="9" y="0" width="4.5" height="95" rx="1.5" fill="url(#chopGrad)" opacity="0.85"/> </g> </svg>