<svg xmlns="http://www.w3.org/2000/svg" viewBox="0 0 400 400"> <defs> <radialGradient id="bowlRim" cx="50%" cy="50%" r="50%"> <stop offset="70%" stop-color="#E8E0D0"/> <stop offset="100%" stop-color="#D0C8B8"/> </radialGradient> <radialGradient id="broth" cx="45%" cy="42%" r="50%"> <stop offset="0%" stop-color="#E8C862"/> <stop offset="100%" stop-color="#D4B04A"/> </radialGradient> <linearGradient id="chopGrad" x1="0" y1="0" x2="0" y2="1"> <stop offset="0%" stop-color="#D2691E"/> <stop offset="50%" stop-color="#A0522D"/> <stop offset="100%" stop-color="#6B3A1F"/> </linearGradient> <radialGradient id="brothEdge" cx="50%" cy="50%" r="50%"> <stop offset="60%" stop-color="transparent"/> <stop offset="100%" stop-color="rgba(0,0,0,0.1)"/> </radialGradient> <radialGradient id="highlight" cx="38%" cy="35%" r="40%"> <stop offset="0%" stop-color="#FFF" stop-opacity="0.14"/> <stop offset="100%" stop-color="#FFF" stop-opacity="0"/> </radialGradient> <linearGradient id="wontonGrad" x1="0" y1="0" x2="0" y2="1"> <stop offset="0%" stop-color="#F0D890"/> <stop offset="100%" stop-color="#D4B868"/> </linearGradient> </defs> <ellipse cx="204" cy="208" rx="155" ry="155" fill="rgba(0,0,0,0.1)"/> <circle cx="200" cy="200" r="160" fill="url(#bowlRim)"/> <circle cx="200" cy="200" r="148" fill="url(#bowlRim)" stroke="#B8B0A0" stroke-width="0.5"/> <circle cx="200" cy="200" r="142" fill="url(#broth)"/> <circle cx="200" cy="200" r="142" fill="url(#brothEdge)"/> <path d="M128,198 Q162,168 202,178 Q244,190 268,212 Q288,232 308,215" stroke="#F0D080" stroke-width="2.8" fill="none" opacity="0.5"/> <path d="M118,220 Q152,194 190,214 Q230,234 278,200" stroke="#E8C870" stroke-width="2.5" fill="none" opacity="0.45"/> <path d="M140,242 Q180,210 222,232 Q262,252 295,228" stroke="#F0D080" stroke-width="2.8" fill="none" opacity="0.42"/> <path d="M150,178 Q184,162 214,182 Q250,200 284,184" stroke="#E8C870" stroke-width="2.5" fill="none" opacity="0.55"/> <path d="M112,200 Q152,232 202,208 Q252,182 290,202" stroke="#F0D080" stroke-width="3" fill="none" opacity="0.38"/> <g transform="translate(155,130)"> <path d="M-12,6 L0,-10 L12,6 Z" fill="url(#wontonGrad)" stroke="#C4A048" stroke-width="0.5"/> <path d="M-6,0 Q0,-4 6,0" stroke="#C4A048" stroke-width="0.6" fill="none" opacity="0.5"/> <path d="M-3,3 Q0,1 3,3" stroke="#C4A048" stroke-width="0.4" fill="none" opacity="0.4"/> </g> <g transform="translate(190,115)"> <path d="M-11,6 L0,-10 L11,6 Z" fill="url(#wontonGrad)" stroke="#C4A048" stroke-width="0.5"/> <path d="M-5,0 Q0,-3 5,0" stroke="#C4A048" stroke-width="0.6" fill="none" opacity="0.5"/> <path d="M-3,3 Q0,1 3,3" stroke="#C4A048" stroke-width="0.4" fill="none" opacity="0.4"/> </g> <g transform="translate(225,118)"> <path d="M-12,6 L0,-10 L12,6 Z" fill="url(#wontonGrad)" stroke="#C4A048" stroke-width="0.5"/> <path d="M-6,0 Q0,-4 6,0" stroke="#C4A048" stroke-width="0.6" fill="none" opacity="0.5"/> <path d="M-3,3 Q0,1 3,3" stroke="#C4A048" stroke-width="0.4" fill="none" opacity="0.4"/> </g> <g transform="translate(258,135)"> <path d="M-11,6 L0,-10 L11,6 Z" fill="url(#wontonGrad)" stroke="#C4A048" stroke-width="0.5"/> <path d="M-5,0 Q0,-3 5,0" stroke="#C4A048" stroke-width="0.6" fill="none" opacity="0.5"/> <path d="M-3,3 Q0,1 3,3" stroke="#C4A048" stroke-width="0.4" fill="none" opacity="0.4"/> </g> <g transform="translate(295,195)"> <path d="M0,0 Q4,-6 2,-12" stroke="#F5F0E0" stroke-width="1.5" fill="none"/><circle cx="2" cy="-12" r="1.5" fill="#F0EBD8"/> <path d="M5,2 Q8,-4 7,-11" stroke="#F5F0E0" stroke-width="1.5" fill="none"/><circle cx="7" cy="-11" r="1.5" fill="#F0EBD8"/> <path d="M-4,1 Q-1,-5 -3,-11" stroke="#F5F0E0" stroke-width="1.5" fill="none"/><circle cx="-3" cy="-11" r="1.5" fill="#F0EBD8"/> <path d="M8,4 Q12,-2 10,-9" stroke="#F5F0E0" stroke-width="1.5" fill="none"/><circle cx="10" cy="-9" r="1.5" fill="#F0EBD8"/> </g> <g transform="translate(108,250)"> <circle cx="0" cy="-4" r="6" fill="#388E3C"/> <circle cx="-5" cy="0" r="5" fill="#43A047"/> <circle cx="5" cy="0" r="5" fill="#2E7D32"/> <circle cx="0" cy="2" r="4" fill="#4CAF50"/> <rect x="-1.5" y="4" width="3" height="6" rx="1" fill="#6D4C41"/> </g> <g transform="translate(125,270)"> <circle cx="0" cy="-3" r="5" fill="#388E3C"/> <circle cx="-4" cy="0" r="4.5" fill="#43A047"/> <circle cx="4" cy="0" r="4.5" fill="#2E7D32"/> <circle cx="0" cy="2" r="3.5" fill="#4CAF50"/> <rect x="-1.5" y="3" width="3" height="5" rx="1" fill="#6D4C41"/> </g> <g transform="translate(268,278)"> <circle cx="0" cy="0" r="8" fill="#FF8A65" stroke="#E64A19" stroke-width="0.5"/> <path d="M0,-4 L2,-1 L4,-3" stroke="#F4511E" stroke-width="0.5" fill="none" opacity="0.5"/> <path d="M0,-4 L-2,-1 L-4,-3" stroke="#F4511E" stroke-width="0.5" fill="none" opacity="0.5"/> <path d="M0,-4 L0,0" stroke="#F4511E" stroke-width="0.5" fill="none" opacity="0.5"/> <circle cx="0" cy="0" r="2" fill="#FF7043" opacity="0.5"/> </g> <g transform="translate(250,292)"> <circle cx="0" cy="0" r="7" fill="#FF8A65" stroke="#E64A19" stroke-width="0.5"/> <path d="M0,-3 L1.5,-1 L3,-2.5" stroke="#F4511E" stroke-width="0.5" fill="none" opacity="0.5"/> <path d="M0,-3 L-1.5,-1 L-3,-2.5" stroke="#F4511E" stroke-width="0.5" fill="none" opacity="0.5"/> <circle cx="0" cy="0" r="1.5" fill="#FF7043" opacity="0.5"/> </g> <g transform="translate(280,110)"> <path d="M0,5 L0,0" stroke="#558B2F" stroke-width="1" fill="none"/> <path d="M-4,-2 Q-2,-5 0,0 Q2,-5 4,-2" fill="#66BB6A" opacity="0.8"/> <path d="M-6,0 Q-4,-4 -1,-1" fill="#7CB342" opacity="0.7"/> <path d="M6,0 Q4,-4 1,-1" fill="#7CB342" opacity="0.7"/> </g> <g transform="translate(270,100)"> <path d="M0,5 L0,0" stroke="#558B2F" stroke-width="1" fill="none"/> <path d="M-4,-2 Q-2,-5 0,0 Q2,-5 4,-2" fill="#66BB6A" opacity="0.8"/> <path d="M-5,0 Q-3,-3 -1,-1" fill="#7CB342" opacity="0.7"/> <path d="M5,0 Q3,-3 1,-1" fill="#7CB342" opacity="0.7"/> </g> <circle cx="200" cy="180" r="3.5" fill="#4CAF50" stroke="#388E3C" stroke-width="0.5"/><circle cx="200" cy="180" r="1.5" fill="#66BB6A"/> <circle cx="175" cy="230" r="3.5" fill="#4CAF50" stroke="#388E3C" stroke-width="0.5"/><circle cx="175" cy="230" r="1.5" fill="#66BB6A"/> <circle cx="220" cy="250" r="3" fill="#4CAF50" stroke="#388E3C" stroke-width="0.5"/><circle cx="220" cy="250" r="1.2" fill="#66BB6A"/> <circle cx="160" cy="190" r="3" fill="#4CAF50" stroke="#388E3C" stroke-width="0.5"/><circle cx="160" cy="190" r="1.2" fill="#66BB6A"/> <circle cx="200" cy="200" r="142" fill="url(#highlight)"/> <g transform="translate(295,80) rotate(30)"> <rect x="0" y="0" width="4.5" height="95" rx="1.5" fill="url(#chopGrad)" opacity="0.9"/> <rect x="9" y="0" width="4.5" height="95" rx="1.5" fill="url(#chopGrad)" opacity="0.85"/> </g> </svg>