<svg xmlns="http://www.w3.org/2000/svg" viewBox="0 0 400 400">
<defs>
<radialGradient id="a" cx="50%" cy="50%" r="50%"><stop offset="0%" stop-color="#FFF0D0"/><stop offset="100%" stop-color="#F0E0B8"/></radialGradient>
<radialGradient id="b" cx="50%" cy="50%" r="50%"><stop offset="0%" stop-color="#8B7355"/><stop offset="80%" stop-color="#6B5340"/><stop offset="100%" stop-color="#4A3728"/></radialGradient>
<radialGradient id="c" cx="42%" cy="42%" r="52%"><stop offset="0%" stop-color="#F0D882"/><stop offset="100%" stop-color="#D8C062"/></radialGradient>
<radialGradient id="d" cx="32%" cy="32%" r="35%"><stop offset="0%" stop-color="#fff" stop-opacity=".22"/><stop offset="100%" stop-color="#fff" stop-opacity="0"/></radialGradient>
<linearGradient id="e" x1="0" y1="0" x2="1" y2="0"><stop offset="0%" stop-color="#C4956A"/><stop offset="50%" stop-color="#A0724E"/><stop offset="100%" stop-color="#7A5535"/></linearGradient>
<linearGradient id="w" x1="0" y1="0" x2="0" y2="1"><stop offset="0%" stop-color="#F0D890"/><stop offset="100%" stop-color="#D4B060"/></linearGradient>
</defs>
<circle cx="200" cy="200" r="198" fill="url(#a)"/>
<circle cx="200" cy="200" r="175" fill="url(#b)"/>
<circle cx="200" cy="200" r="165" fill="#5A4530" opacity=".4"/>
<circle cx="200" cy="200" r="158" fill="url(#c)"/>
<g fill="none" stroke="#E8C850" stroke-width="2.8" opacity=".5">
<path d="M105,188Q148,165 195,192Q242,222 282,188"/>
<path d="M100,208Q150,235 200,208Q250,182 295,212"/>
<path d="M108,228Q155,202 205,232Q255,262 290,228"/>
<path d="M128,248Q168,218 215,248Q260,275 278,242"/>
<path d="M118,172Q162,195 212,172Q258,148 285,178"/></g>
<g fill="url(#w)" stroke="#C4A050" stroke-width=".8">
<path d="M155,162L182,152L172,178Z"/><path d="M198,172L225,165L218,192Z"/>
<path d="M142,198L168,190L162,216Z"/><path d="M238,188L262,180L256,206Z"/></g>
<g fill="none" stroke="#B89840" stroke-width=".5">
<path d="M163,168Q170,158 176,170"/><path d="M206,178Q212,170 218,180"/>
<path d="M150,204Q156,195 163,206"/><path d="M246,194Q252,186 258,196"/></g>
<g fill="none" stroke="#E8E0C8" stroke-width="1.4" opacity=".65">
<path d="M218,272Q224,260 230,266"/><path d="M234,278Q238,265 244,270"/>
<path d="M246,280Q252,268 258,274"/><path d="M208,276Q214,264 220,270"/></g>
<g><rect x="278" y="248" width="5" height="10" rx="1" fill="#3A7A2A"/>
<circle cx="273" cy="245" r="7" fill="#4A9A3A"/><circle cx="281" cy="242" r="7" fill="#50A840"/>
<circle cx="288" cy="246" r="6" fill="#4A9A3A"/>
<rect x="306" y="262" width="5" height="10" rx="1" fill="#3A7A2A"/>
<circle cx="301" cy="259" r="7" fill="#4A9A3A"/><circle cx="309" cy="256" r="7" fill="#50A840"/>
<circle cx="316" cy="260" r="6" fill="#4A9A3A"/></g>
<circle cx="148" cy="252" r="8" fill="#E87030" stroke="#D06020" stroke-width=".5"/>
<circle cx="166" cy="262" r="7" fill="#E87030" stroke="#D06020" stroke-width=".5"/>
<g fill="#3A8A2A" opacity=".85">
<path d="M118,168Q123,158 128,168Q123,173 118,168"/>
<path d="M126,166Q131,156 136,166Q131,171 126,166"/>
<path d="M122,175Q127,165 132,175Q127,180 122,175"/>
<path d="M288,288Q293,278 298,288Q293,293 288,288"/>
<path d="M296,286Q301,276 306,286Q301,291 296,286"/>
<path d="M292,295Q297,285 302,295Q297,300 292,295"/></g>
<g fill="#60C050" stroke="#3A8A2A" stroke-width=".6" opacity=".85">
<circle cx="182" cy="282" r="5"/><circle cx="258" cy="232" r="4.5"/>
<circle cx="312" cy="208" r="4"/><circle cx="142" cy="228" r="5"/></g>
<circle cx="200" cy="200" r="158" fill="url(#d)"/>
<rect x="285" y="48" width="7" height="195" rx="3" fill="url(#e)" transform="rotate(35,315,98)"/>
<rect x="295" y="52" width="7" height="195" rx="3" fill="url(#e)" transform="rotate(33,322,102)"/>
</svg>